<?xml version="1.0" standalone="no"?>
<!DOCTYPE svg PUBLIC "-//W3C//DTD SVG 20010904//EN"
 "http://www.w3.org/TR/2001/REC-SVG-20010904/DTD/svg10.dtd">
<svg version="1.0" xmlns="http://www.w3.org/2000/svg"
 width="830.000000pt" height="830.000000pt" viewBox="0 0 830.000000 830.000000"
 preserveAspectRatio="xMidYMid meet">
<metadata>
Created by potrace 1.14, written by Peter Selinger 2001-2017
</metadata>
<g transform="translate(0.000000,830.000000) scale(0.100000,-0.100000)"
fill="#000000" stroke="none">
<path d="M4061 8224 c-43 -9 -98 -33 -173 -76 -60 -35 -126 -72 -147 -84 -20
-11 -52 -30 -71 -41 -85 -49 -736 -425 -1140 -658 -113 -65 -238 -137 -277
-161 -40 -24 -75 -44 -78 -44 -3 0 -24 -11 -46 -26 -22 -14 -55 -33 -72 -43
-79 -44 -710 -408 -782 -451 -44 -26 -100 -59 -125 -72 -212 -118 -404 -235
-447 -273 -28 -25 -65 -69 -82 -98 -30 -53 -60 -156 -55 -189 1 -10 -2 -18 -8
-18 -7 0 -7 -4 -1 -12 12 -16 11 -198 -1 -217 -7 -11 -6 -12 5 -6 12 8 12 6 0
-8 -7 -9 -9 -17 -4 -17 4 0 8 -49 8 -110 0 -60 -4 -110 -9 -110 -5 0 -4 -6 1
-12 12 -16 11 -198 -1 -217 -7 -11 -6 -12 5 -6 12 8 12 6 0 -8 -7 -9 -9 -17
-4 -17 10 0 10 -220 0 -237 -4 -6 -4 -14 1 -17 10 -6 9 -127 -1 -143 -4 -6 -4
-14 1 -17 10 -6 9 -127 -1 -143 -4 -6 -4 -14 1 -17 10 -6 9 -127 -1 -143 -4
-6 -4 -14 1 -17 7 -4 8 -181 2 -196 -1 -3 -1 -9 0 -15 8 -26 4 -235 -4 -235
-4 0 -4 -6 1 -12 12 -16 11 -198 -1 -217 -7 -11 -6 -12 5 -6 12 8 12 6 0 -8
-7 -9 -9 -17 -4 -17 4 0 8 -49 8 -110 0 -60 -4 -110 -9 -110 -5 0 -4 -6 1 -12
11 -15 11 -203 1 -214 -4 -4 -4 -14 1 -23 9 -20 8 -232 -2 -248 -4 -6 -4 -14
1 -17 10 -6 9 -127 -1 -143 -4 -6 -4 -14 1 -17 10 -6 9 -127 -1 -143 -4 -6 -4
-14 1 -17 10 -6 9 -127 -1 -143 -4 -6 -4 -14 1 -17 9 -6 9 -182 -1 -192 -3 -4
-3 -14 2 -23 10 -21 8 -72 -3 -90 -6 -9 -5 -12 1 -8 6 4 13 -9 16 -33 3 -21
17 -65 32 -97 14 -32 25 -58 24 -58 -1 0 21 -24 49 -53 29 -28 56 -52 62 -52
5 0 10 -4 10 -8 0 -5 16 -14 35 -22 19 -8 35 -17 35 -22 0 -4 7 -8 15 -8 8 0
15 -5 15 -11 0 -5 4 -8 9 -4 5 3 12 1 15 -4 3 -5 29 -21 58 -36 29 -15 55 -31
58 -34 3 -4 22 -15 42 -24 21 -10 38 -22 38 -27 0 -6 3 -9 8 -8 13 4 52 -13
52 -23 0 -5 7 -9 15 -9 8 0 15 -5 15 -10 0 -6 3 -9 7 -8 13 3 63 -24 63 -34 0
-4 3 -7 8 -6 11 4 92 -44 92 -54 0 -5 4 -7 9 -3 5 3 16 -1 24 -9 8 -8 17 -12
21 -9 3 4 6 2 6 -4 0 -6 10 -13 23 -17 12 -3 32 -15 45 -26 12 -11 22 -17 22
-13 0 4 7 -2 16 -13 8 -10 12 -13 9 -6 -6 11 -3 11 13 1 12 -7 19 -16 17 -19
-2 -3 4 -6 14 -7 25 -2 202 -106 199 -118 -2 -5 -7 -8 -13 -7 -5 2 -6 0 -2 -4
11 -11 38 -14 31 -3 -3 5 -1 9 5 9 5 0 13 -5 16 -10 4 -6 11 -8 16 -5 5 4 9 2
9 -2 0 -5 12 -14 28 -20 26 -12 62 -33 72 -43 3 -3 22 -14 43 -25 20 -11 37
-23 37 -27 0 -5 3 -7 8 -6 13 3 42 -14 37 -22 -3 -5 3 -6 13 -3 12 3 31 -7 52
-29 19 -18 31 -27 26 -20 -4 6 -2 12 3 12 6 0 11 -4 11 -9 0 -5 9 -11 21 -14
12 -3 18 -10 15 -16 -4 -5 -1 -13 5 -17 8 -4 9 -3 5 4 -4 7 -3 12 3 12 6 0 15
-9 21 -20 6 -11 15 -18 20 -15 15 9 72 -24 64 -37 -4 -6 -3 -8 3 -5 11 7 104
-39 115 -57 5 -6 8 -7 8 -1 0 6 3 6 8 0 4 -6 28 -21 54 -35 26 -13 45 -27 42
-31 -2 -4 4 -6 14 -5 9 0 16 -4 15 -11 -2 -8 4 -10 14 -6 11 4 14 3 9 -6 -5
-8 -3 -12 5 -10 25 3 35 -1 57 -21 12 -12 22 -17 22 -13 0 4 7 -2 16 -13 8
-10 12 -12 8 -4 -7 12 -5 13 8 2 8 -7 35 -23 59 -36 24 -13 43 -28 42 -34 -2
-7 4 -9 14 -5 9 4 14 2 10 -3 -3 -6 4 -11 16 -11 12 -1 28 -10 35 -20 7 -10
15 -17 17 -16 11 4 45 -10 45 -19 0 -5 4 -6 10 -3 5 3 10 3 10 -2 0 -4 14 -14
30 -22 29 -12 30 -14 13 -27 -16 -13 -15 -13 9 -3 22 10 31 9 44 -2 19 -16 50
-34 82 -48 12 -6 22 -15 22 -21 0 -6 5 -8 10 -5 6 3 10 1 10 -5 0 -6 5 -8 10
-5 6 3 10 2 10 -2 0 -5 18 -16 40 -26 22 -9 40 -22 40 -28 0 -5 4 -8 8 -5 12
7 63 -29 55 -39 -5 -4 -2 -5 4 -1 14 8 73 -22 73 -37 0 -4 4 -5 10 -2 5 3 21
-5 34 -18 14 -14 28 -22 31 -18 4 3 12 -1 18 -10 12 -16 18 -19 38 -19 5 0 8
-4 5 -8 -2 -4 5 -9 16 -9 11 -1 28 -9 37 -17 10 -9 23 -16 30 -16 7 0 9 -4 6
-10 -4 -6 1 -7 11 -3 13 5 16 3 11 -10 -4 -11 -2 -14 9 -10 9 3 27 -3 42 -14
15 -11 42 -26 60 -34 18 -8 30 -19 28 -26 -3 -7 1 -10 9 -7 16 6 58 -14 51
-24 -3 -5 3 -8 13 -9 28 -2 92 -44 84 -56 -3 -6 -1 -7 6 -3 17 11 83 -13 75
-27 -5 -9 -4 -9 5 -1 14 13 51 7 51 -8 0 -5 5 -6 11 -2 7 4 44 9 82 11 39 2
73 5 75 8 3 3 12 -1 20 -8 13 -10 14 -9 8 2 -5 8 -3 17 5 22 22 14 28 11 24
-12 -3 -12 -1 -18 3 -15 4 4 8 12 8 17 1 5 2 14 3 19 0 6 6 10 12 10 6 0 22 9
36 20 14 11 29 17 34 14 5 -3 9 0 9 6 0 6 5 8 10 5 6 -3 10 -2 10 3 0 5 14 15
30 22 17 7 30 16 30 20 0 9 57 34 64 29 3 -2 12 5 20 16 9 11 16 16 16 12 0
-5 7 -1 16 8 9 9 23 14 30 11 7 -3 16 0 20 6 5 7 2 8 -6 3 -9 -5 -11 -4 -6 3
4 7 11 12 16 12 5 0 31 14 57 30 26 17 53 28 60 26 7 -3 15 0 19 6 5 7 2 8 -7
4 -8 -4 -5 0 5 8 11 9 26 16 33 16 7 0 13 3 13 8 0 8 26 23 73 42 15 7 27 16
27 21 0 5 7 9 16 9 9 0 12 -5 8 -12 -4 -7 -3 -8 5 -4 6 4 9 11 6 16 -6 9 54
46 68 42 4 -1 7 3 7 9 0 6 7 8 16 5 8 -3 12 -2 9 3 -3 5 5 13 17 17 12 3 28
13 36 21 8 8 23 11 36 8 15 -5 17 -4 8 3 -11 7 0 17 42 40 32 17 56 25 57 19
0 -7 4 -2 9 11 9 21 20 26 49 23 7 -2 10 2 7 7 -7 11 70 55 83 47 5 -3 13 0
17 6 5 8 2 10 -7 5 -8 -4 -5 -1 5 8 10 8 22 13 26 11 5 -3 10 2 14 10 3 8 15
15 26 15 14 0 19 4 14 12 -5 8 0 9 14 6 12 -4 20 -3 18 1 -7 11 52 43 64 36 6
-4 9 -1 8 7 -2 7 5 12 14 12 10 -1 16 2 13 6 -3 4 2 11 11 14 10 4 13 2 9 -7
-4 -6 2 -3 12 9 27 30 72 56 85 48 6 -4 8 -3 5 3 -10 17 24 25 42 11 14 -12
14 -11 3 4 -12 15 -10 19 25 35 21 10 40 21 41 26 2 4 9 7 17 7 7 0 18 7 25
15 15 18 35 20 24 3 -5 -7 -3 -8 5 -4 7 5 10 11 7 14 -7 6 115 78 127 74 4 -1
7 3 7 9 0 6 7 8 17 5 10 -4 14 -4 10 0 -8 8 7 20 75 57 25 14 49 23 52 20 3
-4 6 -1 6 5 0 6 14 19 31 28 23 11 29 12 24 2 -4 -7 2 -3 12 10 10 13 28 24
40 25 12 0 19 5 17 9 -3 4 0 8 6 8 6 0 18 7 27 15 8 8 18 13 23 10 4 -3 11 2
14 11 4 9 13 14 21 10 8 -3 15 -2 15 3 0 4 36 29 80 55 56 33 86 46 102 42 13
-3 17 -3 11 0 -21 9 -15 27 7 21 10 -3 18 0 17 5 -1 6 12 19 28 28 35 22 49
25 39 8 -4 -7 -3 -8 5 -4 6 4 9 11 7 15 -5 7 75 56 198 123 17 9 36 21 41 26
21 17 125 71 125 64 0 -4 5 1 11 11 6 9 14 15 20 12 5 -4 9 -1 9 4 0 6 7 11
15 11 8 0 15 5 15 11 0 5 5 7 10 4 6 -3 10 -3 10 2 0 4 26 22 58 38 31 17 60
34 64 40 4 5 10 6 14 3 3 -4 15 3 26 15 11 12 17 15 13 7 -4 -10 -2 -9 8 2 8
10 19 18 26 18 6 0 11 4 11 9 0 6 9 8 20 6 11 -2 19 1 17 8 -1 7 4 11 11 9 6
-1 12 3 12 10 0 6 2 9 5 6 6 -5 45 26 114 91 20 19 29 31 21 26 -8 -4 -5 3 8
17 12 13 22 30 22 36 0 7 4 12 10 12 5 0 7 7 4 15 -4 8 -2 15 3 15 5 0 10 6
11 13 0 6 3 21 6 32 2 11 5 35 5 53 1 21 5 31 12 26 8 -4 8 -1 2 12 -11 23
-11 464 0 482 5 6 5 12 0 12 -10 0 -10 291 0 308 5 6 4 12 0 12 -8 0 -10 169
-3 195 1 6 1 12 0 15 -6 15 -5 207 2 221 4 9 4 19 1 23 -10 10 -11 198 -1 217
4 9 4 19 1 23 -10 10 -11 198 -1 217 4 9 4 19 1 23 -10 10 -11 198 -1 217 4 9
4 19 1 23 -10 10 -11 198 -1 217 4 9 4 19 1 23 -10 10 -11 198 -1 217 4 9 4
19 1 23 -10 10 -11 198 -1 217 4 9 4 19 1 23 -10 10 -11 198 -1 217 4 9 4 19
1 23 -10 10 -11 198 -1 217 4 9 4 19 1 23 -10 10 -11 198 -1 217 4 9 4 19 1
23 -11 10 -10 199 0 220 5 10 5 16 0 13 -4 -3 -9 17 -10 45 -3 89 -48 183
-123 258 -44 44 -128 97 -410 259 -195 113 -419 242 -498 288 -79 46 -147 83
-152 83 -6 0 -10 5 -10 10 0 6 -4 10 -10 10 -7 0 -238 130 -300 169 -8 6 -31
19 -50 29 -19 11 -192 110 -385 222 -192 112 -369 213 -392 226 -23 13 -92 53
-153 89 -61 36 -115 65 -121 65 -5 0 -9 5 -9 10 0 6 -4 10 -9 10 -6 0 -118 63
-251 140 -133 77 -246 140 -251 140 -5 0 -9 5 -9 10 0 6 -4 10 -9 10 -4 0 -71
36 -147 79 -178 103 -254 121 -383 95z"/>
<path d="M7210 1766 c0 -2 7 -7 16 -10 8 -3 12 -2 9 4 -6 10 -25 14 -25 6z"/>
<path d="M1627 1459 c7 -7 15 -10 18 -7 3 3 -2 9 -12 12 -14 6 -15 5 -6 -5z"/>
<path d="M1835 1320 c-3 -5 -1 -10 4 -10 6 0 11 5 11 10 0 6 -2 10 -4 10 -3 0
-8 -4 -11 -10z"/>
<path d="M2053 1205 c0 -8 4 -12 9 -9 5 3 6 10 3 15 -9 13 -12 11 -12 -6z"/>
<path d="M6206 1178 c3 -5 10 -6 15 -3 13 9 11 12 -6 12 -8 0 -12 -4 -9 -9z"/>
<path d="M5860 980 c8 -5 20 -10 25 -10 6 0 3 5 -5 10 -8 5 -19 10 -25 10 -5
0 -3 -5 5 -10z"/>
<path d="M2516 918 c3 -5 10 -6 15 -3 13 9 11 12 -6 12 -8 0 -12 -4 -9 -9z"/>
<path d="M2720 820 c-12 -7 -10 -9 7 -7 12 0 19 5 17 9 -6 10 -6 10 -24 -2z"/>
<path d="M2835 740 c-3 -5 -1 -10 4 -10 6 0 11 5 11 10 0 6 -2 10 -4 10 -3 0
-8 -4 -11 -10z"/>
<path d="M3887 139 c7 -7 15 -10 18 -7 3 3 -2 9 -12 12 -14 6 -15 5 -6 -5z"/>
<path d="M3975 101 c-3 -5 -2 -12 3 -15 5 -3 9 1 9 9 0 17 -3 19 -12 6z"/>
<path d="M4193 65 c0 -8 4 -12 9 -9 5 3 6 10 3 15 -9 13 -12 11 -12 -6z"/>
</g>
</svg>
